<?xml version="1.0" standalone="no"?><!DOCTYPE svg PUBLIC "-//W3C//DTD SVG 1.1//EN" "http://www.w3.org/Graphics/SVG/1.1/DTD/svg11.dtd"><svg t="1547636496112" class="icon" style="" viewBox="0 0 1024 1024" version="1.1" xmlns="http://www.w3.org/2000/svg" p-id="3875" xmlns:xlink="http://www.w3.org/1999/xlink" width="200" height="200"><defs><style type="text/css"></style></defs><path d="M925.9 518.2c-6.7-16.9-22.9-27.9-41.2-27.9H783.8V124c0-13.3-10.7-24-24-24H263.4c-13.3 0-24 10.7-24 24v366.3h-96.9c-18.4 0-34.6 11-41.3 28-6.6 16.9-2.3 35.8 11.1 48.1l0.1 0.1L501 921.6c4.6 4.2 10.4 6.3 16.2 6.3 5.9 0 11.7-2.1 16.4-6.4l381.7-355.2 0.1-0.1c13-12.4 17.2-31.2 10.5-48z m-409 353.2l-364.4-333h110.8c13.3 0 24-10.7 24-24V148h448.4v366.3c0 13.3 10.7 24 24 24h115L516.9 871.4z" fill="#707070" p-id="3876"></path><path d="M654.6 549.6H532.8v-68.5h102.3c13.3 0 24-10.7 24-24s-10.7-24-24-24h-97.8l103.9-103.9c9.4-9.4 9.4-24.6 0-33.9-9.4-9.4-24.6-9.4-33.9 0l-97 97-101.2-101.2c-9.4-9.4-24.6-9.4-33.9 0s-9.4 24.6 0 33.9l108 108h-106c-13.3 0-24 10.7-24 24s10.7 24 24 24h107.7v68.5H357.6c-13.3 0-24 10.7-24 24s10.7 24 24 24h127.2V722c0 13.3 10.7 24 24 24s24-10.7 24-24V597.6h121.8c13.3 0 24-10.7 24-24s-10.8-24-24-24z" fill="#707070" p-id="3877"></path></svg>