<?xml version="1.0" standalone="no"?><!DOCTYPE svg PUBLIC "-//W3C//DTD SVG 1.1//EN" "http://www.w3.org/Graphics/SVG/1.1/DTD/svg11.dtd"><svg t="1547720751990" class="icon" style="" viewBox="0 0 1024 1024" version="1.1" xmlns="http://www.w3.org/2000/svg" p-id="7016" xmlns:xlink="http://www.w3.org/1999/xlink" width="200" height="200"><defs><style type="text/css"></style></defs><path d="M828.7 284.3V82.6H681.9v82L606.2 103l-93.8-76.6-93.9 76.6L6.8 438.6l93.9 76.5 411.7-335.5L924 515.1l94-76.5z" fill="#1A7FC0" p-id="7017"></path><path d="M878.7 658.8V545.4l-7-5.7L606 323.1l-93.8-76.6-93.8 76.6-265.8 216.7-7 5.7v113.3l0.4 318.7h733.2l-0.5-318.7z m-106.4 91.7c0 7.1-6 12.7-13.5 12.7H624.3c-7.5 0-13.5-5.7-13.5-12.7V563c0-7.1 6-12.7 13.5-12.7h134.6c7.5 0 13.5 5.7 13.5 12.7v187.5z" fill="#83C6EF" p-id="7018"></path><path d="M466.1 927.5V725.8c0-57.8-47.3-105-105-105s-105 47.3-105 105v201.7h210z" fill="#FFFFFF" p-id="7019"></path><path d="M878.7 658.8V545.4l-7-5.6L606 323.1l-93.6-76.4v730.7h366.8z" fill="#429BCF" p-id="7020"></path><path d="M625.1 583h130.2v130.2H625.1z" fill="#F9C85D" p-id="7021"></path><path d="M690.2 583h65.1v130.2h-65.1z" fill="#FFB103" p-id="7022"></path><path d="M361.1 620.8v306.7h105V725.8c0-57.8-47.3-105-105-105z" fill="#D2EDF7" p-id="7023"></path><path d="M828.7 284.2V82.6H681.9v82L606.2 103l-93.8-76.6v153.2L924 515.1l94-76.5z" fill="#429BCF" p-id="7024"></path><path d="M828.7 284.2V82.6h-73.4v295L924 515.1l94-76.5z" fill="#1A7FC0" p-id="7025"></path><path d="M828.7 284.3L681.9 164.6 606.2 103l-92.3-75.3v153.1L924 515.1l94-76.5z" fill="#2D416C" p-id="7026"></path><path d="M471.8 935.9H250.4c-4.5 0-8.1-3.6-8.1-8.1s3.6-8.1 8.1-8.1h221.4c4.5 0 8.1 3.6 8.1 8.1 0 4.4-3.6 8.1-8.1 8.1z" fill="#1A7FC0" p-id="7027"></path><path d="M761.6 724.9H618.9c-3.2 0-5.9-2.6-5.9-5.9 0-3.2 2.6-5.9 5.9-5.9h142.7c3.2 0 5.9 2.6 5.9 5.9 0 3.3-2.7 5.9-5.9 5.9z" fill="#2D416C" p-id="7028"></path></svg>