<?xml version="1.0" standalone="no"?><!DOCTYPE svg PUBLIC "-//W3C//DTD SVG 1.1//EN" "http://www.w3.org/Graphics/SVG/1.1/DTD/svg11.dtd"><svg t="1547607632186" class="icon" style="" viewBox="0 0 1248 1024" version="1.1" xmlns="http://www.w3.org/2000/svg" p-id="8151" xmlns:xlink="http://www.w3.org/1999/xlink" width="243.75" height="200"><defs><style type="text/css"></style></defs><path d="M1213.830124 227.543843l-200.937177 0 0 174.764729 0 13.122684c-3.496952 211.620282-176.753517 382.699124-389.212404 382.699124s-385.69225-171.052325-389.212404-382.699124l0-13.122684L234.468139 227.543843l44.827278 0 596.069539 0 92.720603 0 44.80739 0L1012.892947 0 234.468139 0l-54.910431 0-124.693681 0c-30.292553 0-54.864026 24.544956-54.864026 54.837509l0 172.706333 0 194.642663c0 40.683969 4.30904 81.394456 12.741501 121.050885 8.213693 38.721699 20.474571 76.823559 36.471054 113.244893 15.661704 35.682168 35.035812 70.118029 57.59198 102.280042 22.267794 31.777515 47.873438 61.639163 75.984953 88.842466 16.331262 15.708109 33.623773 30.627333 51.655449 44.565421 13.099483 10.129559 26.580149 19.685685 40.422112 28.761187 33.358601 21.720878 68.991049 40.422112 105.96593 55.510382 37.740564 15.469455 77.227946 27.322629 117.364998 35.247949 41.091671 8.144087 83.310321 12.260877 125.432848 12.260877 42.172245 0 84.367693-4.116791 125.459364-12.260877 40.160255-7.925319 79.624435-19.755292 117.364998-35.247949 36.97488-15.08827 72.607329-33.789504 105.96593-55.510382 13.865166-9.075502 27.345832-18.631628 40.422112-28.761187 18.054879-13.938088 35.347388-28.857311 51.655449-44.565421 28.161236-27.203303 53.710529-57.064952 76.008156-88.842466 22.532966-32.185216 41.930276-66.597874 57.568777-102.280042 16.019686-36.421334 28.280562-74.496677 36.517459-113.244893 8.429146-39.633227 12.691781-80.340399 12.691781-121.050885L1247.284849 227.543843 1213.830124 227.543843 1213.830124 227.543843z" p-id="8152" fill="#FF7F00"></path></svg>