<?xml version="1.0" standalone="no"?><!DOCTYPE svg PUBLIC "-//W3C//DTD SVG 1.1//EN" "http://www.w3.org/Graphics/SVG/1.1/DTD/svg11.dtd"><svg t="1547821219806" class="icon" style="" viewBox="0 0 1024 1024" version="1.1" xmlns="http://www.w3.org/2000/svg" p-id="7530" xmlns:xlink="http://www.w3.org/1999/xlink" width="200" height="200"><defs><style type="text/css"></style></defs><path d="M609.28 537.6l-209.92 0c-15.36 0-25.6-10.24-25.6-25.6s10.24-25.6 25.6-25.6l209.92 0c15.36 0 25.6 10.24 25.6 25.6S622.08 537.6 609.28 537.6z" p-id="7531" fill="#1afa29"></path><path d="M609.28 640l-209.92 0c-15.36 0-25.6-10.24-25.6-25.6s10.24-25.6 25.6-25.6l209.92 0c15.36 0 25.6 10.24 25.6 25.6S622.08 640 609.28 640z" p-id="7532" fill="#1afa29"></path><path d="M512 780.8c-15.36 0-25.6-10.24-25.6-25.6L486.4 537.6c0-15.36 10.24-25.6 25.6-25.6s25.6 10.24 25.6 25.6l0 217.6C537.6 770.56 527.36 780.8 512 780.8z" p-id="7533" fill="#1afa29"></path><path d="M512 522.24c-5.12 0-12.8-2.56-17.92-7.68L399.36 422.4c-10.24-10.24-10.24-25.6 0-35.84 10.24-10.24 25.6-10.24 35.84 0l94.72 89.6c10.24 10.24 10.24 25.6 0 35.84C524.8 519.68 519.68 522.24 512 522.24z" p-id="7534" fill="#1afa29"></path><path d="M499.2 522.24C491.52 522.24 486.4 519.68 481.28 512c-10.24-10.24-10.24-25.6 0-35.84l94.72-89.6c10.24-10.24 25.6-10.24 35.84 0 10.24 10.24 10.24 25.6 0 35.84L517.12 514.56C512 519.68 504.32 522.24 499.2 522.24z" p-id="7535" fill="#1afa29"></path><path d="M509.44 990.72c-179.2 0-325.12-53.76-401.92-148.48C48.64 768 28.16 675.84 51.2 570.88 66.56 486.4 153.6 325.12 325.12 225.28c12.8-7.68 28.16-2.56 35.84 10.24 7.68 12.8 2.56 28.16-10.24 35.84-153.6 92.16-235.52 238.08-250.88 312.32-17.92 92.16-2.56 168.96 46.08 227.84 69.12 81.92 199.68 130.56 363.52 130.56 15.36 0 25.6 10.24 25.6 25.6S524.8 990.72 509.44 990.72z" p-id="7536" fill="#1afa29"></path><path d="M499.2 990.72c-15.36 0-25.6-10.24-25.6-25.6s10.24-25.6 25.6-25.6c163.84 0 294.4-48.64 363.52-130.56 48.64-58.88 64-135.68 46.08-227.84-15.36-71.68-94.72-220.16-250.88-312.32-12.8-7.68-15.36-23.04-10.24-35.84 7.68-12.8 23.04-15.36 35.84-10.24 171.52 99.84 258.56 261.12 273.92 345.6 20.48 104.96 2.56 199.68-56.32 271.36C824.32 934.4 675.84 990.72 499.2 990.72z" p-id="7537" fill="#1afa29"></path><path d="M340.48 268.8c-7.68 0-12.8-2.56-17.92-7.68-48.64-48.64-69.12-99.84-58.88-143.36 23.04-89.6 133.12-102.4 238.08-102.4 15.36 0 25.6 10.24 25.6 25.6s-10.24 25.6-25.6 25.6c-151.04 0-179.2 33.28-189.44 64C307.2 153.6 325.12 192 358.4 225.28c10.24 10.24 10.24 25.6 0 35.84C353.28 266.24 345.6 268.8 340.48 268.8z" p-id="7538" fill="#1afa29"></path><path d="M663.04 268.8c-7.68 0-12.8-2.56-17.92-7.68-10.24-10.24-10.24-25.6 0-35.84 33.28-35.84 51.2-71.68 46.08-94.72-7.68-30.72-35.84-64-189.44-64-15.36 0-25.6-10.24-25.6-25.6s10.24-25.6 25.6-25.6c104.96 0 215.04 12.8 238.08 102.4 10.24 43.52-10.24 94.72-58.88 143.36C675.84 266.24 670.72 268.8 663.04 268.8z" p-id="7539" fill="#1afa29"></path></svg>