<?xml version="1.0" standalone="no"?><!DOCTYPE svg PUBLIC "-//W3C//DTD SVG 1.1//EN" "http://www.w3.org/Graphics/SVG/1.1/DTD/svg11.dtd"><svg t="1547821178488" class="icon" style="" viewBox="0 0 1024 1024" version="1.1" xmlns="http://www.w3.org/2000/svg" p-id="7059" xmlns:xlink="http://www.w3.org/1999/xlink" width="200" height="200"><defs><style type="text/css"></style></defs><path d="M664 398.19h-55.14l89.87-89.86a39.89 39.89 0 0 0 0-56.42 39.89 39.89 0 0 0-56.42 0l-130.7 130.7-130.86-130.86a39.33 39.33 0 0 0-55.64 0 39.35 39.35 0 0 0 0 55.64l90.81 90.8H360a40 40 0 0 0-40 40 40 40 0 0 0 40 40h112v64H360a40 40 0 0 0-40 40 40 40 0 0 0 40 40h112v121.59a40 40 0 0 0 40 40 40 40 0 0 0 40-40V622.19h112a40 40 0 0 0 40-40 40 40 0 0 0-40-40H552v-64h112a40 40 0 0 0 40-40 40 40 0 0 0-40-40z" fill="#999999" p-id="7060"></path><path d="M512 64C264.58 64 64 264.58 64 512s200.58 448 448 448 448-200.57 448-448S759.42 64 512 64z m0 816c-203.24 0-368-164.76-368-368s164.76-368 368-368 368 164.76 368 368-164.76 368-368 368z" fill="#999999" p-id="7061"></path><path d="M512 64C264.58 64 64 264.58 64 512s200.58 448 448 448 448-200.57 448-448S759.42 64 512 64z m0 816c-203.24 0-368-164.76-368-368s164.76-368 368-368 368 164.76 368 368-164.76 368-368 368z" fill="#104E8B" p-id="7062" data-spm-anchor-id="a313x.7781069.0.i9" class=""></path><path d="M664 398.19h-55.14l89.87-89.86a39.89 39.89 0 0 0 0-56.42 39.89 39.89 0 0 0-56.42 0l-130.7 130.7-130.86-130.86a39.33 39.33 0 0 0-55.64 0 39.35 39.35 0 0 0 0 55.64l90.81 90.8H360a40 40 0 0 0-40 40 40 40 0 0 0 40 40h112v64H360a40 40 0 0 0-40 40 40 40 0 0 0 40 40h112v121.59a40 40 0 0 0 40 40 40 40 0 0 0 40-40V622.19h112a40 40 0 0 0 40-40 40 40 0 0 0-40-40H552v-64h112a40 40 0 0 0 40-40 40 40 0 0 0-40-40z" fill="#ffffff" p-id="7063" data-spm-anchor-id="a313x.7781069.0.i10" class="selected"></path></svg>