<?xml version="1.0" standalone="no"?><!DOCTYPE svg PUBLIC "-//W3C//DTD SVG 1.1//EN" "http://www.w3.org/Graphics/SVG/1.1/DTD/svg11.dtd"><svg t="1547822290740" class="icon" style="" viewBox="0 0 1024 1024" version="1.1" xmlns="http://www.w3.org/2000/svg" p-id="9820" xmlns:xlink="http://www.w3.org/1999/xlink" width="200" height="200"><defs><style type="text/css"></style></defs><path d="M513.024 698.368q-25.6 35.84-59.392 69.632t-80.896 59.392l0-129.024 140.288 0zM372.736 232.448l-93.184 0 0-46.08 47.104 0 0-140.288 371.712 0 0 140.288 47.104 0 0 46.08-93.184 0 0-93.184-279.552 0 0 93.184zM884.736 279.552q38.912 0 66.048 27.136t27.136 66.048l0 558.08q0 38.912-27.136 66.048t-66.048 27.136l-744.448 0q-38.912 0-66.048-27.136t-27.136-66.048l0-558.08q0-38.912 27.136-66.048t66.048-27.136l744.448 0zM791.552 652.288l-186.368 0 0-47.104 140.288 0 0-186.368-279.552 0 0 186.368 93.184 0 0 47.104-186.368 0 0-139.264q12.288-28.672 16.384-58.368t12.288-59.392l-57.344-15.36q-33.792 134.144-98.304 243.712 1.024 3.072 3.072 14.336t4.096 23.552 4.096 23.04 2.048 13.824q6.144-9.216 15.36-21.504t18.944-25.6 18.432-25.088 14.848-20.992l0 279.552 46.08 0 0-57.344q7.168 5.12 21.504 23.04t25.6 34.304q47.104-25.6 80.384-59.904t58.88-80.384l0 140.288 46.08 0 0-140.288q20.48 40.96 57.344 76.8t86.016 63.488q1.024-1.024 7.68-11.776t14.336-22.528 13.824-22.016 7.168-12.288q-48.128-23.552-83.456-54.272t-55.808-63.488l139.264 0 0-46.08zM698.368 558.08l-185.344 0 0-92.16 185.344 0 0 92.16z" p-id="9821" fill="#104E8B"></path></svg>