<?xml version="1.0" standalone="no"?><!DOCTYPE svg PUBLIC "-//W3C//DTD SVG 1.1//EN" "http://www.w3.org/Graphics/SVG/1.1/DTD/svg11.dtd"><svg t="1547557845591" class="icon" style="" viewBox="0 0 1024 1024" version="1.1" xmlns="http://www.w3.org/2000/svg" p-id="3265" xmlns:xlink="http://www.w3.org/1999/xlink" width="200" height="200"><defs><style type="text/css"></style></defs><path d="M819.2 435.2h-204.8V230.4c0-56.32-46.08-102.4-102.4-102.4s-102.4 46.08-102.4 102.4v204.8H204.8c-56.32 0-102.4 46.08-102.4 102.4s46.08 102.4 102.4 102.4h204.8v204.8c0 56.32 46.08 102.4 102.4 102.4s102.4-46.08 102.4-102.4v-204.8h204.8c56.32 0 102.4-46.08 102.4-102.4s-46.08-102.4-102.4-102.4z m0 153.6H563.2v256c0 28.16-23.04 51.2-51.2 51.2s-51.2-23.04-51.2-51.2V588.8H204.8c-28.16 0-51.2-23.04-51.2-51.2s23.04-51.2 51.2-51.2h256V230.4c0-28.16 23.04-51.2 51.2-51.2s51.2 23.04 51.2 51.2v256h256c28.16 0 51.2 23.04 51.2 51.2s-23.04 51.2-51.2 51.2z" p-id="3266" fill="#ffffff"></path></svg>