<?xml version="1.0" standalone="no"?><!DOCTYPE svg PUBLIC "-//W3C//DTD SVG 1.1//EN" "http://www.w3.org/Graphics/SVG/1.1/DTD/svg11.dtd"><svg t="1547602445068" class="icon" style="" viewBox="0 0 1024 1024" version="1.1" xmlns="http://www.w3.org/2000/svg" p-id="4652" xmlns:xlink="http://www.w3.org/1999/xlink" width="200" height="200"><defs><style type="text/css"></style></defs><path d="M938.666667 0H85.333333C38.4 0 0 38.4 0 85.333333v853.333334c0 46.933333 38.4 85.333333 85.333333 85.333333h853.333334c46.933333 0 85.333333-38.4 85.333333-85.333333V85.333333c0-46.933333-38.4-85.333333-85.333333-85.333333zM576 625.066667c0 36.266667-27.733333 64-64 64s-64-27.733333-64-64H85.333333V396.8h853.333334v228.266667H576zM938.666667 85.333333v226.133334H85.333333V85.333333h853.333334zM85.333333 938.666667V710.4h305.066667c27.733333 38.4 72.533333 64 121.6 64 51.2 0 96-25.6 121.6-64H938.666667V938.666667H85.333333z" p-id="4653" fill="#ffffff"></path></svg>