<?xml version="1.0" standalone="no"?><!DOCTYPE svg PUBLIC "-//W3C//DTD SVG 1.1//EN" "http://www.w3.org/Graphics/SVG/1.1/DTD/svg11.dtd"><svg t="1547800481426" class="icon" style="" viewBox="0 0 1024 1024" version="1.1" xmlns="http://www.w3.org/2000/svg" p-id="12527" xmlns:xlink="http://www.w3.org/1999/xlink" width="200" height="200"><defs><style type="text/css"></style></defs><path d="M512 415.328C459.008 415.328 416 458.336 416 511.328 416 564.32 459.008 607.328 512 607.328 564.992 607.328 608 564.32 608 511.328 608 458.336 564.992 415.328 512 415.328M512 735.328C388.384 735.328 288 634.944 288 511.328 288 387.712 388.384 287.328 512 287.328 635.616 287.328 736 387.712 736 511.328 736 634.944 635.616 735.328 512 735.328M512 160C285.28 160 89.536 303.776 0 511.328 89.536 718.88 285.28 862.656 512 862.656 738.72 862.656 934.464 718.88 1024 511.328 934.464 303.776 738.72 160 512 160" p-id="12528" fill="#DAA520"></path></svg>