<?xml version="1.0" standalone="no"?><!DOCTYPE svg PUBLIC "-//W3C//DTD SVG 1.1//EN" "http://www.w3.org/Graphics/SVG/1.1/DTD/svg11.dtd"><svg t="1547622004251" class="icon" style="" viewBox="0 0 1152 1024" version="1.1" xmlns="http://www.w3.org/2000/svg" p-id="16377" xmlns:xlink="http://www.w3.org/1999/xlink" width="225" height="200"><defs><style type="text/css"></style></defs><path d="M1056 0H95.68C42.56 0 0 43.008 0 95.808v237.44c0 246.528 155.072 468.672 372.992 550.912v91.136c0 18.56 6.08 24 21.952 25.408C762.176 1030.784 1152 748.416 1152 333.184V95.872C1152 43.008 1109.12 0 1056 0z m-149.952 518.784c-57.728 97.536-147.648 158.464-260.48 175.744-24.32 3.776-47.296 5.12-67.52 5.12-50.048 0-84.16-8.128-86.144-8.512l-1.728-0.32c-158.72-48.064-235.456-153.728-271.616-233.984-38.848-85.696-40.512-159.872-40.512-164.224h-0.32a28.928 28.928 0 0 1 29.056-28.48c15.488 0 28.032 12.16 28.992 27.456h0.384c0 0.64 1.664 67.712 36.48 143.232 45.568 99.2 123.968 166.592 233.792 200.128 6.72 1.344 63.488 13.184 132.416 2.048 95.232-15.232 168.256-65.024 216.896-147.968l0.32 0.32a28.8 28.8 0 0 1 38.848-9.856c13.824 7.808 18.56 25.408 11.136 39.296z m40.192-167.936a43.712 43.712 0 0 1 0-87.36 43.712 43.712 0 0 1 0 87.36z" p-id="16378" fill="#104E8B"></path></svg>