<?xml version="1.0" standalone="no"?><!DOCTYPE svg PUBLIC "-//W3C//DTD SVG 1.1//EN" "http://www.w3.org/Graphics/SVG/1.1/DTD/svg11.dtd"><svg t="1547718497728" class="icon" style="" viewBox="0 0 1024 1024" version="1.1" xmlns="http://www.w3.org/2000/svg" p-id="5320" xmlns:xlink="http://www.w3.org/1999/xlink" width="200" height="200"><defs><style type="text/css"></style></defs><path d="M660.088268 255.30978c-52.580542 113.768113-186.122001 107.628276-226.279606 3.273557-135.311779 41.821501-156.140153 154.122193-156.800185 218.793098-50.504254 11.156084-51.625798 66.846454-51.040467 74.161047 0.653893 8.184403 18.49319 15.711843 27.004027 3.273557 7.430226-10.857279-0.603751-41.422412 26.635637-47.922453 3.220345 7.816013 10.67206 18.463514 25.735128 18.463514 6.746658 0 12.265348-2.217505 16.687054-5.315052 11.67797 16.978696 7.862062 42.956348 7.862062 42.956348s0 364.147604 0 381.330962 32.323173 20.048615 32.731472 0c0.409322-20.048615 0-381.330962 0-381.330962s2.793626-49.519834-26.199709-74.078159c2.010797-86.022189 50.953486-136.272663 91.664699-146.45149 13.09218 13.911848 3.273557 159.975505 3.273557 159.975505s-84.186378 203.901946-27.822672 420.61057c5.727445 27.821649 70.373791 71.191412 101.467973-8.18338-58.916854-240.582357 39.279608-325.68664 39.279608-325.68664s81.83175 53.190433 37.642319 328.959174c15.548114 60.556191 76.869738 46.290279 99.833753 9.82067 44.188408-327.322907-32.731472-422.245813-32.731472-422.245813s-6.54609-141.153834 8.18338-158.338215c7.364735-2.454912 85.36932 60.588937 73.647347 223.803205 0 3.272533 4.909823 22.911826 29.458939 21.275559 24.548092-1.636267 31.096229-26.186406 31.096229-26.186406S831.10013 353.216647 660.088268 255.30978zM543.470247 313.632093c52.876278 0 95.741551-46.52871 95.741551-103.925954S596.346525 105.782232 543.470247 105.782232s-95.741551 46.527686-95.741551 103.924931S490.593969 313.632093 543.470247 313.632093z" p-id="5321" fill="#104E8B"></path></svg>