<?xml version="1.0" standalone="no"?><!DOCTYPE svg PUBLIC "-//W3C//DTD SVG 1.1//EN" "http://www.w3.org/Graphics/SVG/1.1/DTD/svg11.dtd"><svg t="1547625718745" class="icon" style="" viewBox="0 0 1024 1024" version="1.1" xmlns="http://www.w3.org/2000/svg" p-id="18518" data-spm-anchor-id="a313x.7781069.0.i52" xmlns:xlink="http://www.w3.org/1999/xlink" width="200" height="200"><defs><style type="text/css"></style></defs><path d="M571.776 957.952c-12.48-41.376-36.8-73.92-66.976-89.184 13.952-10.784 24.384-27.392 28.768-46.912 16.512-10.336 49.408-29.024 113.728-60.64 0 0 5.824-3.264 9.344 2.368 0 0 35.84 41.696 77.728 39.52 0 0 7.168-0.448 10.304-8.544 5.568-14.336-32.736-31.168-32.736-31.168-18.016-8.128-15.68-25.76-15.68-25.76 1.184-11.296-6.464-17.536-6.464-17.536-13.568-11.072-58.848 18.496-58.848 18.496-32.032 17.568-63.84 35.52-95.424 53.888-2.368-25.856-15.136-47.936-33.216-60.544 30.272-4.8 62.4-13.824 94.496-29.216 78.272-34.784 100.48-116.256 100.48-116.256 32.704-109.12-33.92-195.296-33.92-195.296-17.184-22.4-42.88-38.08-68.16-48.96 70.272-100.928 155.104-131.52 170.08-136.32 6.272 16.32 26.912 27.36 50.72 25.728 27.84-1.92 49.28-20.256 47.904-41.056-1.28-20.8-24.96-36.128-52.8-34.24-24.416 1.664-43.84 16.064-47.36 33.664-102.72 32.992-163.488 96.576-195.68 142.208-29.856-9.472-53.824-12.448-53.824-12.448s-54.752-4.736-88.096-49.376c0 0-28 46.592-96.736 77.216 0.32-111.328 42.88-182.144 55.296-200.512 14.496 9.6 37.792 5.792 56.096-10.24 21.12-18.56 27.68-46.4 14.464-62.24-13.248-15.84-41.12-13.664-62.272 4.896-18.4 16.16-25.632 39.264-18.56 55.424-58.88 84.608-72 167.968-72.32 223.904-24.64 11.712-91.072 53.024-94.72 159.36 0 0-9.44 169.024 126.208 203.744 0 0 38.08 12.544 93.44 14.496-16.096 13.984-26.816 36.064-27.744 61.12-23.616-11.712-58.08-28.544-96.32-46.368 0 0-47.04-26.624-59.936-14.72 0 0-7.168 6.72-5.376 17.952 0 0 3.488 17.44-14.08 26.688 0.032 0-37.12 19.296-30.688 33.184 1.792 4.48 5.984 7.552 10.784 7.904 42.016-0.608 75.168-44.48 75.168-44.48 3.2-5.856 9.216-3.008 9.216-3.008 63.008 26.08 96.64 42.24 114.496 51.712 4.736 17.024 14.144 31.52 26.4 41.44-31.424 15.136-56.736 48.832-69.312 91.872l212.128-1.76zM272.8 486.528c1.184-105.472 163.68-109.12 163.68-109.12s189.376-19.104 192.96 93.536c0 0 19.84 97.088-176.544 112.64-184 15.904-180.096-97.056-180.096-97.056z m66.208 158.336c-7.36-2.688-8.736-9.664-7.04-16 2.24-8.544 11.84-7.904 16.224-6.656 60.48 17.152 142.4 25.728 223.936-17.824 5.728-3.04 13.952-2.4 17.6 3.68 3.424 5.76 1.6 12.8-4.672 16.672-58.336 36.288-156.096 52.992-246.048 20.16z" fill="#1296db" p-id="18519" data-spm-anchor-id="a313x.7781069.0.i51" class=""></path><path d="M384.448 507.52s0.256 4.992 8.704 4.288c8.416-0.704 54.144-10.912 113.056-9.6 6.4-0.544 5.856-5.504 5.856-5.504-3.584-29.824-34.912-51.52-70.208-48.544-35.2 2.976-60.96 29.6-57.408 59.36" fill="#2c2c2c" p-id="18520" data-spm-anchor-id="a313x.7781069.0.i53" class="selected"></path></svg>