<?xml version="1.0" standalone="no"?><!DOCTYPE svg PUBLIC "-//W3C//DTD SVG 1.1//EN" "http://www.w3.org/Graphics/SVG/1.1/DTD/svg11.dtd"><svg t="1547819888853" class="icon" style="" viewBox="0 0 1024 1024" version="1.1" xmlns="http://www.w3.org/2000/svg" p-id="2025" xmlns:xlink="http://www.w3.org/1999/xlink" width="200" height="200"><defs><style type="text/css"></style></defs><path d="M214.633 573.037c-97.515 85.034-115.524 252.321-117.554 350.26 95.249 92.831 702.051 87.684 828.017 0 12.089-111.578-37.104-282.518-113.799-355.099-29.655 0-57.238 0.076-83.278 0.214-22.555 1.703-41.647-0.214-56.059-7.466-16.462-17.12-26.674-45.632-33.251-80.916 20.601-23.366 37.024-52.075 46.81-84.163 12.439-6.807 21.743-18.241 27.934-33.699 6.79-16.713 9.866-38.492 9.458-64.241l-0.154-8.279-6.905-4.72c-2.592-1.779-5.262-3.403-7.874-4.814 13.715-100.957-4.854-168.272-56.524-206.148-76.175-55.865-219.031-55.362-294.22 6.228-48.338 39.635-61.243 91.033-45.923 202.182-1.295 0.814-2.67 1.662-3.967 2.553l-6.905 4.682-0.114 8.317c-0.445 26.269 2.805 48.381 9.826 65.266 6.482 15.515 16.094 26.928 28.996 33.405 10.618 34.354 28.782 64.822 51.513 88.827-5.437 27.333-13.308 50.234-24.741 66.525-14.277 17.023-35.207 23.309-61.457 20.87-27.948 0.14-57.719 0.214-89.828 0.214v0z" p-id="2026" fill="#ffffff"></path></svg>