<?xml version="1.0" standalone="no"?><!DOCTYPE svg PUBLIC "-//W3C//DTD SVG 1.1//EN" "http://www.w3.org/Graphics/SVG/1.1/DTD/svg11.dtd"><svg t="1547723416908" class="icon" style="" viewBox="0 0 1024 1024" version="1.1" xmlns="http://www.w3.org/2000/svg" p-id="9378" xmlns:xlink="http://www.w3.org/1999/xlink" width="200" height="200"><defs><style type="text/css"></style></defs><path d="M512.699863 186.26362C357.130248 186.26362 231.054872 312.438977 231.054872 468.008592c0 155.569615 126.175356 281.744972 281.744972 281.744972 155.569615 0 281.744972-126.175356 281.744971-281.744972-0.09998-155.569615-126.175356-281.744972-281.844952-281.744972z" fill="#FFB400" p-id="9379"></path><path d="M319.737551 834.636985h385.924624v56.388986h-385.924624z" fill="#104E8B" p-id="9380" data-spm-anchor-id="a313x.7781069.0.i10" class="selected"></path><path d="M377.526264 967.611013H647.973443v56.388987H377.526264z" fill="#1296db" p-id="9381" data-spm-anchor-id="a313x.7781069.0.i11" class=""></path><path d="M483.005663 0.09998h56.388986v112.578013H483.005663zM162.808202 156.817372l39.872212-39.872213 79.604452 79.604452-39.872212 39.872213zM47.290764 437.714509h112.578012v56.388986H47.290764zM864.431166 435.91486h112.578012v56.388987H864.431166zM740.699332 195.294856l79.604452-79.604452 39.872213 39.872213-79.604452 79.604452z" fill="#FFD200" p-id="9382"></path></svg>