<?xml version="1.0" standalone="no"?><!DOCTYPE svg PUBLIC "-//W3C//DTD SVG 1.1//EN" "http://www.w3.org/Graphics/SVG/1.1/DTD/svg11.dtd"><svg t="1547800160751" class="icon" style="" viewBox="0 0 1024 1024" version="1.1" xmlns="http://www.w3.org/2000/svg" p-id="4030" xmlns:xlink="http://www.w3.org/1999/xlink" width="200" height="200"><defs><style type="text/css"></style></defs><path d="M257.914094 488.537635c12.32163-27.90863 38.025035-86.190011 38.025035-86.190011 8.731872-19.836791 26.468838-32.498158 46.291302-33.127492 19.84293-0.618077 38.183647 10.951423 47.888683 30.192649 0 0 40.291658 79.786161 66.705238 132.096551 28.836769-85.690638 82.598206-245.458411 82.598206-245.458411 7.631818-22.60995 26.565029-37.690414 48.242747-38.441521l0.037862 0c21.670555-0.710175 41.394782 13.088086 50.219775 35.149545 0 0 51.981908 130.173758 72.246441 180.902116 15.58086-18.897396 32.833803-39.814798 32.833803-39.814798 9.593496-11.660574 23.2444-18.615986 37.442774-19.161409 14.198374-0.511653 28.244274 5.451152 38.528502 16.368806 0 0 52.322669 55.611575 63.504336 67.482951l43.87937 0c17.777899-40.150442 26.702152-83.35136 26.702152-137.505747 0-149.033291-108.555391-269.7824-242.436588-269.7824-78.5848 0-154.091494 41.60763-198.374046 106.148575C467.948715 122.857119 392.46044 81.249489 313.864384 81.249489c-133.930315 0-242.443751 120.749108-242.443751 269.7824 0 54.154387 8.924253 97.356328 26.697035 137.505747L257.914094 488.537635zM512.25071 187.398064C514.347464 184.266747 510.106884 184.266747 512.25071 187.398064L512.25071 187.398064zM784.724405 548.470633c-19.898189 24.146956-51.007721 61.848627-51.007721 61.848627-12.154831 14.750959-30.008454 21.664416-47.787376 18.420535-17.770735-3.242857-32.751938-16.09763-40.057321-34.404578 0 0-30.000268-75.077929-52.399417-131.151016-28.511357 84.771709-77.132728 229.201146-77.132728 229.201146-7.251148 21.506826-25.189705 36.503379-45.754067 38.276768-20.564361 1.763157-40.386826-10.021238-50.492998-30.048363 0 0-47.14781-93.383854-73.200162-144.955416-4.472871 10.196223-8.025791 18.207687-8.025791 18.207687-8.865925 20.13048-27.616988 33.130561-47.78226 33.130561L178.063465 606.996584c27.040866 31.520901 59.09184 65.609277 96.629781 105.84056C411.313833 859.231329 512.25071 959.520453 512.25071 959.520453s100.909248-100.289124 237.496066-246.683309c38.34533-41.073464 70.968331-75.757404 98.370425-107.836007-8.826016-2.494821-17.011442-7.248078-23.737634-14.377452C824.378543 590.623685 801.561885 566.354955 784.724405 548.470633zM972.420251 534.525016 862.032118 534.525016c-5.395894 0-10.54824-2.24411-14.258749-6.15314l-70.329788-74.785264c-1.87879-1.980097-4.15053-3.028986-6.431479-2.956332-2.378164 0.095167-4.674463 1.342578-6.482645 3.551896l-57.212026 69.38937c-4.41659 5.325285-11.294231 7.961322-18.098193 6.881734-6.825452-1.072425-12.571317-5.680373-15.132652-12.104689l-86.916559-217.58048c-1.784646-4.466732-5.335519-7.294127-9.067516-7.213285-3.838422 0.155543-7.335059 3.28072-8.945743 8.018627 0 0.022513-100.444667 298.483068-100.444667 298.483068-2.527566 7.481392-9.296737 12.734022-17.143449 13.291724-7.855922 0.572028-15.312754-3.6399-18.86158-10.704806L341.082282 421.184645c-1.929955-3.822049-5.194302-6.137791-8.566096-6.024204-3.378957 0.099261-6.627954 2.687202-8.402367 6.737448l-44.494377 100.927667c-3.13541 7.098675-10.166547 11.69946-17.904789 11.69946L52.03819 534.525016c-5.408173 0-9.976212 6.061043-9.976212 13.254885 0 7.191796 4.568039 13.256932 9.976212 13.256932l228.101091 0c3.493567 0 6.818289-2.574638 8.654101-6.713912l27.825742-63.153342c3.056616-6.946202 9.824763-11.493775 17.386996-11.69946 7.574512-0.190335 14.566764 3.988848 17.972327 10.752902l95.235015 188.620915c2.001587 4.00522 5.447059 6.309706 8.900717 6.000668 3.690042-0.324388 7.05365-3.448542 8.580422-7.980765l97.40954-289.458531c2.628874-7.789407 9.81146-13.119809 17.99177-13.351076 8.200776-0.236384 15.664771 4.695952 18.72855 12.335956l75.877131 189.935863c1.528819 3.800559 4.386914 6.519484 7.525394 7.076162 2.904143 0.545422 5.806239-0.701988 8.049327-3.39533l67.289546-81.639369c3.586688-4.344958 8.832156-6.927783 14.44192-7.118118 5.587252-0.176009 11.012821 2.047636 14.851243 6.157233l57.127092 60.695361c1.779529 1.876744 3.976568 2.933819 6.188956 2.933819l122.243135 0c5.40408 0 9.972119-6.065136 9.972119-13.256932C982.39237 540.586059 977.824331 534.525016 972.420251 534.525016z" p-id="4031" fill="#d81e06"></path></svg>