<?xml version="1.0" standalone="no"?><!DOCTYPE svg PUBLIC "-//W3C//DTD SVG 1.1//EN" "http://www.w3.org/Graphics/SVG/1.1/DTD/svg11.dtd"><svg t="1547800301567" class="icon" style="" viewBox="0 0 1024 1024" version="1.1" xmlns="http://www.w3.org/2000/svg" p-id="8548" xmlns:xlink="http://www.w3.org/1999/xlink" width="200" height="200"><defs><style type="text/css"></style></defs><path d="M240.197531 978.850088h541.798942c39.731922 0 72.239859-32.507937 72.239859-72.239859V113.777778c0-39.731922-32.507937-72.239859-72.239859-72.239859h-541.798942c-39.731922 0-72.239859 32.507937-72.239859 72.239859v792.832451c0 39.731922 32.507937 72.239859 72.239859 72.239859z" fill="#E6E6E5" p-id="8549"></path><path d="M783.802469 987.880071h-541.798942c-45.149912 0-81.269841-36.119929-81.269841-81.269842V113.777778c0-45.149912 36.119929-81.269841 81.269841-81.269841h541.798942c45.149912 0 81.269841 36.119929 81.269841 81.269841v792.832451c0 45.149912-37.925926 81.269841-81.269841 81.269842zM240.197531 50.567901c-34.313933 0-63.209877 28.895944-63.209877 63.209877v792.832451c0 34.313933 28.895944 63.209877 63.209877 63.209877h541.798942c34.313933 0 63.209877-28.895944 63.209876-63.209877V113.777778c0-34.313933-28.895944-63.209877-63.209876-63.209877h-541.798942z" fill="#333333" p-id="8550"></path><path d="M520.126984 901.19224m-30.70194 0a30.70194 30.70194 0 1 0 61.40388 0 30.70194 30.70194 0 1 0-61.40388 0Z" fill="#BAE1EA" p-id="8551"></path><path d="M520.126984 940.924162c-21.671958 0-39.731922-18.059965-39.731922-39.731922s18.059965-39.731922 39.731922-39.731923 39.731922 18.059965 39.731923 39.731923-18.059965 39.731922-39.731923 39.731922z m0-63.209876c-12.641975 0-21.671958 10.835979-21.671958 21.671957s10.835979 21.671958 21.671958 21.671958 21.671958-10.835979 21.671958-21.671958-9.029982-21.671958-21.671958-21.671957z" fill="#333333" p-id="8552"></path><path d="M856.042328 791.026455V121.001764c0-43.343915-34.313933-77.657848-77.657848-77.657849H247.421517c-43.343915 0-77.657848 34.313933-77.657849 77.657849v670.024691h686.27866z" fill="#BAE1EA" p-id="8553"></path><path d="M865.07231 800.056437h-704.338624V121.001764c0-48.761905 39.731922-86.687831 86.687831-86.687831H776.578483c48.761905 0 86.687831 39.731922 86.687831 86.687831v679.054673z m-688.084656-18.059964h668.218695V121.001764c0-37.925926-30.70194-68.627866-68.627866-68.627866H247.421517c-37.925926 0-68.627866 30.70194-68.627866 68.627866v660.994709z" fill="#333333" p-id="8554"></path></svg>