<?xml version="1.0" standalone="no"?><!DOCTYPE svg PUBLIC "-//W3C//DTD SVG 1.1//EN" "http://www.w3.org/Graphics/SVG/1.1/DTD/svg11.dtd"><svg t="1547636437943" class="icon" style="" viewBox="0 0 1024 1024" version="1.1" xmlns="http://www.w3.org/2000/svg" p-id="3035" xmlns:xlink="http://www.w3.org/1999/xlink" width="200" height="200"><defs><style type="text/css"></style></defs><path d="M64.178183 351.610056 64.178183 110.270453c0 0-0.847298-45.384653 48.353264-47.50392 49.201585 0 240.914932 0 240.914932 0l0 53.44319-210.801077-0.423649c0 0-23.327288 3.393283-25.448602 22.903639 0 20.783349-0.424672 212.921367-0.424672 212.921367L64.178183 351.61108zM668.799674 62.551638l241.339604 0c0 0 45.384653-0.847298 47.504944 48.354288 0 49.201585 0 240.915955 0 240.915955l-53.44319 0 0.423649-210.801077c0 0-3.393283-23.329335-22.903639-25.449625-20.784372 0-212.921367-0.424672-212.921367-0.424672L668.799674 62.551638zM64.178183 667.174152l0 241.339604c0 0-0.847298 45.384653 48.353264 47.50392 49.201585 0 240.914932 0 240.914932 0l0-53.44319-210.801077 0.424672c0 0-23.327288-3.394307-25.448602-22.903639 0-20.784372-0.424672-212.921367-0.424672-212.921367L64.178183 667.174152 64.178183 667.174152zM668.799674 956.230524l241.339604 0c0 0 45.384653 0.847298 47.504944-48.354288 0-49.201585 0-240.915955 0-240.915955l-53.44319 0 0.423649 210.801077c0 0-3.393283 23.328311-22.903639 25.448602-20.784372 0-212.921367 0.424672-212.921367 0.424672L668.799674 956.230524zM64.178183 481.8227l893.466038 0 0 54.715159-893.466038 0 0-54.715159Z" p-id="3036" fill="#8a8a8a"></path></svg>