<?xml version="1.0" standalone="no"?><!DOCTYPE svg PUBLIC "-//W3C//DTD SVG 1.1//EN" "http://www.w3.org/Graphics/SVG/1.1/DTD/svg11.dtd"><svg t="1547800234420" class="icon" style="" viewBox="0 0 1024 1024" version="1.1" xmlns="http://www.w3.org/2000/svg" p-id="7303" xmlns:xlink="http://www.w3.org/1999/xlink" width="200" height="200"><defs><style type="text/css"></style></defs><path d="M972.8 819.2H870.4V460.8c0-180.8-134-329.9-308-354.4 0.1-1.4 0.8-2.6 0.8-3.9V51.2C563.2 23 540.2 0 512 0s-51.2 23-51.2 51.2v51.2c0 1.4 0.7 2.6 0.8 3.9-174 24.6-308 173.7-308 354.4v358.4H51.2C23 819.2 0 842.2 0 870.4c0 28.2 23 51.2 51.2 51.2h256c0-113.1 91.7-204.8 204.8-204.8s204.8 91.7 204.8 204.8h256c28.2 0 51.2-23 51.2-51.2 0-28.2-23-51.2-51.2-51.2z" fill="#00A2FF" p-id="7304"></path><path d="M512 921.6m-102.4 0a102.4 102.4 0 1 0 204.8 0 102.4 102.4 0 1 0-204.8 0Z" fill="#00A2FF" p-id="7305"></path></svg>