<?xml version="1.0" standalone="no"?><!DOCTYPE svg PUBLIC "-//W3C//DTD SVG 1.1//EN" "http://www.w3.org/Graphics/SVG/1.1/DTD/svg11.dtd"><svg t="1547603268875" class="icon" style="" viewBox="0 0 1024 1024" version="1.1" xmlns="http://www.w3.org/2000/svg" p-id="2878" xmlns:xlink="http://www.w3.org/1999/xlink" width="200" height="200"><defs><style type="text/css"></style></defs><path d="M64 127.808l115.84 0 0 768.384-115.84 0 0-768.384Z" p-id="2879" fill="#ffffff"></path><path d="M217.6 127.808l54.464 0 0 768.384-54.464 0 0-768.384Z" p-id="2880" fill="#ffffff"></path><path d="M342.912 127.808l68.544 0 0 768.384-68.544 0 0-768.384Z" p-id="2881" fill="#ffffff"></path><path d="M539.136 127.808l118.272 0 0 768.384-118.272 0 0-768.384Z" p-id="2882" fill="#ffffff"></path><path d="M688.064 127.808l44.992 0 0 768.384-44.992 0 0-768.384Z" p-id="2883" fill="#ffffff"></path><path d="M803.968 127.808l156.032 0 0 768.384-156.032 0 0-768.384Z" p-id="2884" fill="#ffffff"></path></svg>