<?xml version="1.0" standalone="no"?><!DOCTYPE svg PUBLIC "-//W3C//DTD SVG 1.1//EN" "http://www.w3.org/Graphics/SVG/1.1/DTD/svg11.dtd"><svg t="1547607662961" class="icon" style="" viewBox="0 0 1024 1024" version="1.1" xmlns="http://www.w3.org/2000/svg" p-id="8576" xmlns:xlink="http://www.w3.org/1999/xlink" width="200" height="200"><defs><style type="text/css"></style></defs><path d="M211.569068 318.358745c-18.132986 113.043612-53.866838 206.42542-99.095949 297.29194l0 107.35403c45.229111-68.676126 78.43028-115.75742 98.79305-166.777421l0 340.049766 107.655905 0.145309 0-388.129808c20.36277 35.484166 59.128679 98.309026 90.838891 140.389424L409.760966 533.066805c-31.709189-57.613162-72.758094-126.032438-90.838891-214.70806l66.064648 0 0-82.579787-66.064648 0L318.922075 128.424928 211.267193 128.424928l0.301875 107.35403-90.837868 0 0 82.579787L211.569068 318.358745zM913.353482 826.471205c-88.233554-31.017434-154.99098-66.499553-200.215998-106.402355 54.298673-55.369052 100.362802-121.902374 134.297682-228.291426l-99.096972 0c-22.644743 73.14388-61.240783 118.583792-99.67514 165.130921-33.943067-37.660738-69.136613-83.099626-98.514711-165.130921l-90.838891 0c31.657001 101.970416 68.292386 168.45462 124.868939 228.291426-49.789986 42.145889-115.517967 73.241095-199.190645 102.030791l0 74.322729c115.38289-37.725206 202.586998-79.93454 263.675308-119.820969 61.0791 39.886429 149.312654 78.644151 264.690428 116.369358L913.353482 826.471205zM913.497769 277.06834l-0.022513-82.829474-198.167339 0.249687 0-66.063625L607.952864 128.424928l0 66.063625L418.019047 194.488553l0 82.579787L913.497769 277.06834zM616.211968 318.358745l-99.096972 0c-15.854083 51.015907-50.019207 74.728982-115.612111 99.095949l0 49.547463c117.607558-11.06501 184.0232-52.358485 215.724203-152.099117L616.211968 318.358745zM913.497769 414.174997c-61.087287-19.950378-95.248318-40.385802-115.611088-95.817276l-99.095949 0c27.145244 95.330182 92.539626 133.918036 214.706013 149.397588L913.496745 414.174997z" p-id="8577" fill="#d81e06"></path></svg>