<?xml version="1.0" standalone="no"?><!DOCTYPE svg PUBLIC "-//W3C//DTD SVG 1.1//EN" "http://www.w3.org/Graphics/SVG/1.1/DTD/svg11.dtd"><svg t="1547602508540" class="icon" style="" viewBox="0 0 1024 1024" version="1.1" xmlns="http://www.w3.org/2000/svg" p-id="5501" xmlns:xlink="http://www.w3.org/1999/xlink" width="200" height="200"><defs><style type="text/css"></style></defs><path d="M725.989 382.578c14.9 0 26.9-11.6 26.9-26s-12.1-26-26.9-26h-149.3l89.7-103.8c9.5-11 8-27.4-3.4-36.6s-28.4-7.7-37.9 3.3l-118.5 137.1h10.9l-118.5-137.2c-9.5-11-26.6-12.5-37.9-3.3-11.5 9.3-12.9 25.7-3.4 36.7l89.7 103.8h-149.3c-14.9 0-26.9 11.6-26.9 26s12.1 26 26.9 26h184.8v123.7h-184.8c-14.9 0-26.9 11.6-26.9 26s12.1 26 26.9 26h184.8v141.7c0 14.4 12.1 26 26.9 26s26.9-11.6 26.9-26v-141.5h189.2c14.9 0 26.9-11.6 26.9-26s-12.1-26-26.9-26h-189.2v-123.9h189.3zM512.289 990.578h-0.2c-24.5 0-47.6-8.7-65.1-24.1l-406.8-361.5c-15.1-13.4-26.2-27.1-32.7-40.4-10.6-21.6-7.9-38.8-3.9-49.4 4-10.6 13.6-25.2 35.7-34.3 13.8-5.7 31-8.6 51.2-8.6h58.7V123.778c0-49.8 40.3-90.2 89.9-90.2h553.6c49.5 0 89.9 40.4 89.9 90.3v51.7c0 16.6-13.4 30.1-30.1 30.1-16.6 0-30.1-13.4-30.1-30.1v-51.8c0-16.5-13.2-30.1-29.6-30.1h-553.8c-16.1 0-29.6 13.8-29.6 30v378.6c0 16.6-13.4 30.1-30.1 30.1h-88.7c-17.2 0-25.7 2.8-29.4 4.4 1.6 3.7 6.1 11.5 19.1 23l406.6 361.4c13.4 12 37.1 12 50.6 0l406.6-361.4c12.8-11.4 17.4-19.2 18.8-22.9-3.6-1.7-12.2-4.7-29.6-4.7h-80.9c-16.6 0-30.1-13.4-30.1-30.1v-107.5c0-16.6 13.4-30.1 30.1-30.1 16.6 0 30.1 13.4 30.1 30.1v77.6h50.8c20.2 0 37.6 2.9 51.5 8.6 22.1 9.2 31.7 23.7 35.7 34.4 4 10.6 6.7 27.8-3.8 49.3-6.6 13.4-17.5 27-32.5 40.4l-406.7 361.5c-17.6 15.6-40.8 24.2-65.2 24.2z" p-id="5502" fill="#ffffff"></path></svg>