<?xml version="1.0" standalone="no"?><!DOCTYPE svg PUBLIC "-//W3C//DTD SVG 1.1//EN" "http://www.w3.org/Graphics/SVG/1.1/DTD/svg11.dtd"><svg t="1547776144264" class="icon" style="" viewBox="0 0 1024 1024" version="1.1" xmlns="http://www.w3.org/2000/svg" p-id="10683" xmlns:xlink="http://www.w3.org/1999/xlink" width="200" height="200"><defs><style type="text/css"></style></defs><path d="M929.792 842.752q19.456-11.264 36.352-6.656t29.184 18.432 19.456 33.792 7.168 40.448-7.68 37.888-24.064 25.6q-2.048 8.192-28.672 15.36-22.528 6.144-71.68 11.264t-140.288 4.096q-6.144 1.024-26.624 0.512t-47.104-5.12-55.808-15.36-52.736-29.696-37.888-48.64-11.264-72.704q-3.072-15.36-9.728-31.744t-6.144-38.4 14.336-51.2 53.76-69.12q15.36-25.6 11.264-45.056-3.072-17.408-24.064-30.72t-76.288-13.312q-58.368-4.096-94.208-27.648-15.36-10.24-28.16-25.088t-17.92-37.376-1.536-52.224 20.992-68.608q5.12-34.816-6.144-59.392-5.12-10.24-13.312-18.944t-21.504-14.336-32.768-6.656-47.104 5.12q2.048 10.24 2.048 23.552 0 11.264-1.024 28.672t-6.144 39.936q-6.144 23.552-10.752 40.448t-12.288 30.208-21.504 25.6-39.424 26.624q1.024 3.072 4.096 7.168 5.12 7.168 14.336 12.288 11.264 5.12 26.112 9.216t17.92 12.288q2.048 4.096 0 9.216t-4.608 10.752-4.608 10.752-1.024 8.192q2.048 6.144 6.144 7.168t4.096 3.072q-1.024 0-2.048 1.024-2.048 2.048-3.072 4.096-3.072 6.144-1.536 9.216t3.584 5.12 5.12 4.608 3.072 7.68q-5.12 22.528-2.048 40.96 2.048 15.36 11.776 29.696t33.28 16.384l174.08 0q25.6 49.152 35.84 101.376 4.096 22.528 4.608 47.104t-4.608 50.688-16.896 51.712-33.28 50.176q-31.744 18.432-69.632 25.6-32.768 6.144-76.288 3.072t-94.72-28.672q-20.48 14.336-37.888 13.312-15.36 0-29.696-14.848t-22.528-57.856q-25.6-26.624-29.696-50.176-2.048-10.24 0.512-20.48t12.8-19.456 28.672-17.408 48.128-13.312q25.6-16.384 29.696-34.816 4.096-16.384-13.312-37.888t-76.8-48.128q-58.368-35.84-78.848-84.992-9.216-20.48-10.752-46.08t9.728-56.32 37.376-66.56 73.216-75.776q11.264-8.192 18.432-20.48 6.144-11.264 10.24-28.16t1.024-41.472q-27.648-52.224-29.696-99.328-1.024-19.456 3.584-40.448t17.92-39.936 36.864-34.304 61.44-25.6q26.624-18.432 53.248-25.6 23.552-6.144 49.664-3.072t47.616 28.672q55.296-21.504 109.568-27.648 22.528-3.072 47.616-2.048t50.176 7.168 48.128 18.432 43.52 33.792q63.488 3.072 111.616 41.984 20.48 16.384 39.424 42.496t33.28 64.512 21.504 90.624 4.096 120.832q67.584 66.56 98.304 131.072 13.312 27.648 19.456 57.856t0.512 59.904-26.624 58.368-61.952 53.248q-26.624 3.072-46.08 14.336-17.408 9.216-31.744 27.136t-12.288 48.64q-1.024 17.408 4.096 29.696 5.12 11.264 17.408 20.48t38.912 10.24q6.144-7.168 9.216-12.288 2.048-5.12 1.024-9.728t-10.24-8.704q-5.12-14.336-3.072-26.624 1.024-11.264 8.192-20.48t24.576-12.288q-1.024 0 0.512-0.512t-0.512 0.512z" p-id="10684" fill="#d81e06"></path></svg>