<?xml version="1.0" standalone="no"?><!DOCTYPE svg PUBLIC "-//W3C//DTD SVG 1.1//EN" "http://www.w3.org/Graphics/SVG/1.1/DTD/svg11.dtd"><svg t="1547822247989" class="icon" style="" viewBox="0 0 1024 1024" version="1.1" xmlns="http://www.w3.org/2000/svg" p-id="8730" xmlns:xlink="http://www.w3.org/1999/xlink" width="200" height="200"><defs><style type="text/css"></style></defs><path d="M712 86.4c-163.2-134.4-328-81.6-384 38.4-9.6 19.2-60.8 155.2 78.4 308.8 0 0 0 0 1.6 1.6 1.6 3.2 4.8 4.8 6.4 8 70.4 73.6 169.6 124.8 169.6 230.4 0 132.8-139.2 240-281.6 155.2 0 0-22.4-14.4-38.4-33.6-19.2-24-131.2-166.4 96-334.4-27.2-27.2-112-123.2-102.4-265.6C129.6 316.8 86.4 449.6 86.4 571.2c0 276.8 195.2 454.4 422.4 446.4 264-8 433.6-214.4 433.6-478.4C942.4 384 864 212.8 712 86.4z" p-id="8731" fill="#008B00"></path></svg>