<?xml version="1.0" standalone="no"?><!DOCTYPE svg PUBLIC "-//W3C//DTD SVG 1.1//EN" "http://www.w3.org/Graphics/SVG/1.1/DTD/svg11.dtd"><svg t="1547561661558" class="icon" style="" viewBox="0 0 1024 1024" version="1.1" xmlns="http://www.w3.org/2000/svg" p-id="2434" xmlns:xlink="http://www.w3.org/1999/xlink" width="200" height="200"><defs><style type="text/css"></style></defs><path d="M455.9 244a30 30 0 0 1-30 30H249.22v-60H425.9a30 30 0 0 1 30 30zM455.9 447.39a30 30 0 0 1-30 30H249.22v-60H425.9a30 30 0 0 1 30 30zM775.66 214v60h-177a30 30 0 0 1 0-60h177zM775.66 417.4v60h-177a30 30 0 0 1 0-60h177z" fill="#8a8a8a" p-id="2435"></path><path d="M685.66 13.36H339.22a90.1 90.1 0 0 0-90 90V588a90.1 90.1 0 0 0 90 90h143.32v272.64H379.95a30 30 0 0 0 0 60h265.31a30 30 0 0 0 0-60H542.54V678h143.12a90.1 90.1 0 0 0 90-90V103.36a90.1 90.1 0 0 0-90-90z m30 574.67a30 30 0 0 1-30 30H339.22a30 30 0 0 1-30-30V103.36a30 30 0 0 1 30-30h346.44a30 30 0 0 1 30 30z" fill="#8a8a8a" p-id="2436"></path></svg>