<?xml version="1.0" standalone="no"?><!DOCTYPE svg PUBLIC "-//W3C//DTD SVG 1.1//EN" "http://www.w3.org/Graphics/SVG/1.1/DTD/svg11.dtd"><svg t="1547772864242" class="icon" style="" viewBox="0 0 1024 1024" version="1.1" xmlns="http://www.w3.org/2000/svg" p-id="2428" xmlns:xlink="http://www.w3.org/1999/xlink" width="200" height="200"><defs><style type="text/css"></style></defs><path d="M819.2 529.0496v-8.533333a34.133333 34.133333 0 0 0-68.266667 0v8.533333c0 131.754667-107.178667 238.933333-238.933333 238.933333s-238.933333-107.178667-238.933333-238.933333v-8.533333a34.133333 34.133333 0 0 0-68.266667 0v8.533333c0 157.832533 119.688533 288.136533 273.066667 305.186133V938.666667H307.2a34.133333 34.133333 0 0 0 0 68.266666h409.6a34.133333 34.133333 0 0 0 0-68.266666H546.133333v-104.430934c153.378133-17.0496 273.066667-147.336533 273.066667-305.186133z" fill="#515151" p-id="2429"></path><path d="M512 699.716267c98.816 0 179.2-80.384 179.2-179.2v-324.266667c0-98.816-80.384-179.2-179.2-179.2s-179.2 80.384-179.2 179.2v324.266667c0 98.816 80.384 179.2 179.2 179.2z" fill="#515151" p-id="2430"></path></svg>