<?xml version="1.0" standalone="no"?><!DOCTYPE svg PUBLIC "-//W3C//DTD SVG 1.1//EN" "http://www.w3.org/Graphics/SVG/1.1/DTD/svg11.dtd"><svg t="1547621936687" class="icon" style="" viewBox="0 0 1024 1024" version="1.1" xmlns="http://www.w3.org/2000/svg" p-id="15999" xmlns:xlink="http://www.w3.org/1999/xlink" width="200" height="200"><defs><style type="text/css"></style></defs><path d="M813.800116 276.668227c-8.246825-10.689457-23.554462-12.641925-34.187637-4.39203-10.670014 8.246825-12.619412 23.607674-4.399193 34.297131 114.583688 148.869562 88.971357 362.054943-57.096393 475.240795-70.736041 54.80521-158.789493 78.276784-248.01463 66.10865-89.342818-12.175297-169.160701-58.616002-224.723158-130.806161-52.789297-68.594261-76.695776-160.123884-65.555042-251.127528 11.097756-90.607624 55.819307-172.292018 122.688273-224.111221 102.643752-79.524195 244.147556-91.318822 360.484168-30.051433 17.747199 9.351995 34.767851 20.344351 50.618864 32.704866 10.606569 8.266267 25.940812 6.362918 34.205033-4.321422 8.239662-10.67206 6.341429-26.030863-4.309142-34.326806-18.092054-14.090926-37.553291-26.685779-57.849546-37.3517C552.485575 98.385774 390.375453 111.967094 272.705474 203.160049c-77.104075 59.745732-128.612193 153.380296-141.277654 256.885672-12.665461 103.671151 14.780635 208.27965 75.370595 286.99748 63.448054 82.410941 154.615427 135.433552 256.742409 149.361773 17.6111 2.396583 35.21299 3.597945 52.631708 3.597945 83.819011 0 164.596755-27.41642 231.746108-79.45154C915.274228 690.876993 944.815031 446.887027 813.800116 276.668227zM626.358049 504.359996c10.498098 0 19.009959-8.963139 19.009959-20.009729 0-11.04659-8.511861-20.034289-19.009959-20.034289l-89.551572 0 96.256274-96.264461c5.216815-5.214768 3.056616-15.785521-4.746094-23.588231-7.820106-7.827269-18.373463-9.934257-23.561625-4.740978l-101.901855 101.877295-101.898785-101.877295c-5.217838-5.193279-15.744589-3.085268-23.563672 4.740978-7.829316 7.80271-9.934257 18.373463-4.746094 23.588231l96.259344 96.264461-84.826967 0c-10.478655 0-19.017122 8.963139-19.017122 20.034289 0 11.04659 8.538467 20.009729 19.017122 20.009729l100.140745 0 0 62.095243-100.140745 0c-10.478655 0-19.017122 8.936533-19.017122 19.98824 0 11.073196 8.538467 20.036335 19.017122 20.036335l100.140745 0 0 66.074881c0 11.616572 9.417487 21.007453 21.005406 21.007453 11.621688 0 21.012569-9.390881 21.012569-21.007453l0-66.074881 100.121302 0c10.498098 0 19.009959-8.963139 19.009959-20.036335 0-11.051707-8.511861-19.98824-19.009959-19.98824l-100.121302 0L526.235724 504.359996 626.358049 504.359996z" p-id="16000" fill="#515151"></path></svg>