<?xml version="1.0" standalone="no"?><!DOCTYPE svg PUBLIC "-//W3C//DTD SVG 1.1//EN" "http://www.w3.org/Graphics/SVG/1.1/DTD/svg11.dtd"><svg t="1547821131605" class="icon" style="" viewBox="0 0 1024 1024" version="1.1" xmlns="http://www.w3.org/2000/svg" p-id="5431" xmlns:xlink="http://www.w3.org/1999/xlink" width="200" height="200"><defs><style type="text/css"></style></defs><path d="M704 716.8h-358.4c-15.36 0-25.6 10.24-25.6 25.6s10.24 25.6 25.6 25.6h358.4c15.36 0 25.6-10.24 25.6-25.6 0-12.8-10.24-25.6-25.6-25.6z m76.8-512h-76.8V153.6h-69.12c-23.04-30.72-64-51.2-110.08-51.2-46.08 0-87.04 20.48-110.08 51.2h-69.12v51.2h-76.8c-56.32 0-102.4 46.08-102.4 102.4v512c0 56.32 46.08 102.4 102.4 102.4h512c56.32 0 102.4-46.08 102.4-102.4V307.2c0-56.32-46.08-102.4-102.4-102.4z m-384 0h56.32c0-28.16 30.72-51.2 71.68-51.2 38.4 0 71.68 23.04 71.68 51.2h56.32v102.4h-256V204.8z m435.2 614.4c0 28.16-23.04 51.2-51.2 51.2h-512c-28.16 0-51.2-23.04-51.2-51.2V307.2c0-28.16 23.04-51.2 51.2-51.2h76.8v102.4h358.4v-102.4h76.8c28.16 0 51.2 23.04 51.2 51.2v512z m-128-230.4h-358.4c-15.36 0-25.6 10.24-25.6 25.6s10.24 25.6 25.6 25.6h358.4c15.36 0 25.6-10.24 25.6-25.6 0-12.8-10.24-25.6-25.6-25.6z m0-128h-358.4c-15.36 0-25.6 10.24-25.6 25.6s10.24 25.6 25.6 25.6h358.4c15.36 0 25.6-10.24 25.6-25.6 0-12.8-10.24-25.6-25.6-25.6z" p-id="5432" fill="#CD8500"></path></svg>