<?xml version="1.0" standalone="no"?><!DOCTYPE svg PUBLIC "-//W3C//DTD SVG 1.1//EN" "http://www.w3.org/Graphics/SVG/1.1/DTD/svg11.dtd"><svg t="1547821164870" class="icon" style="" viewBox="0 0 1024 1024" version="1.1" xmlns="http://www.w3.org/2000/svg" p-id="6256" xmlns:xlink="http://www.w3.org/1999/xlink" width="200" height="200"><defs><style type="text/css"></style></defs><path d="M943.936 726.144c-20.48 24-46.08 46.336-76.672 66.304l-0.832 0.576-0.064 0.064c-91.584 59.392-216.384 92.096-351.552 92.096-115.52 0-227.52-25.024-315.392-70.4-49.664-25.664-89.984-57.216-119.552-92.672 6.528 64.448 55.552 127.552 145.408 174.016 83.136 43.008 186.688 64.128 289.536 64.128 118.72 0 236.608-28.096 321.472-83.584h0.192c66.496-43.392 101.76-96.64 107.456-150.528z m-76.672-65.088l-0.832 0.512-0.064 0.064c-91.584 59.52-216.384 92.16-351.552 92.16-115.52 0-227.52-25.024-315.392-70.4-49.664-25.6-89.984-57.344-119.616-92.736 6.528 64.512 55.552 127.616 145.408 174.144 83.136 42.944 186.688 64.064 289.536 64.064 118.72 0 236.608-28.096 321.472-83.52l0.192-0.064c66.56-43.52 101.76-96.64 107.456-150.528a352 352 0 0 1-76.608 66.304z m0-131.392l-0.832 0.576h-0.064c-91.584 59.52-216.384 92.224-351.552 92.224-115.52 0-227.52-25.088-315.392-70.4-49.664-25.6-89.984-57.28-119.552-92.608 6.528 64.448 55.552 127.488 145.408 173.888 83.136 42.944 186.688 64.128 289.536 64.128 118.72 0 236.608-28.16 321.472-83.456l0.192-0.192c66.56-43.392 101.76-96.576 107.456-150.528-20.48 24.064-46.08 46.464-76.672 66.368zM79.36 304.96c-4.288 72.32 45.12 145.344 145.92 197.44 179.136 92.544 452.672 83.904 611.008-19.392l0.192-0.128c69.44-45.376 105.152-101.248 108.288-157.632 0.256-3.52-0.128-6.976-0.192-10.496-0.064-4.416 0.128-8.96-0.32-13.312-6.656-64.32-55.68-127.168-145.408-173.504C715.776 84.928 612.288 63.744 509.44 63.744c-7.744 0-15.424 0.512-23.168 0.768h-1.344c-13.376 0.448-26.624 1.28-39.872 2.368l-1.664 0.128a713.6 713.6 0 0 0-39.232 4.608l-1.6 0.256c-13.056 1.92-25.92 4.096-38.592 6.72l-0.96 0.256c-65.344 13.632-125.888 36.352-175.296 68.544l-0.128 0.128c-69.312 45.184-105.088 101.12-108.224 157.44z m710.72 153.6c-135.744 88.64-370.368 96.128-523.776 16.768-153.6-79.296-167.872-215.36-32.128-303.872 135.808-88.64 370.176-96.128 523.776-16.768 153.344 79.296 167.936 215.36 32.128 303.872zM252.096 180.736c-126.72 82.944-113.216 209.856 30.08 284.224 143.936 73.92 362.688 67.072 489.856-15.616 126.784-83.008 113.344-209.984-30.08-284.288-143.744-74.048-362.56-67.008-489.856 15.68z m125.76 241.408l-19.776 12.864c-7.488 4.928-10.24 4.928-19.136 0.32l-9.984-5.12c-8.96-4.672-9.28-6.272-1.728-11.136l19.776-12.928c-16.832-8.704-76.352-51.392-63.168-59.968 1.344-0.896 1.344-0.896 4.928-2.048l51.456-16.704c1.28-0.384 5.952-1.024 8-0.064 3.008 1.664 19.072 30.016 46.464 47.68l86.272-56.256c-18.56-23.488-60.288-63.04-2.24-100.992 64.768-42.24 147.904-20.8 171.712-9.6l21.568-14.016c7.488-4.928 10.304-4.992 19.264-0.384l10.112 5.184c8.768 4.544 8.96 6.272 1.472 11.072l-21.568 14.08c13.632 8.128 67.648 47.296 52.608 57.152a17.984 17.984 0 0 1-6.464 2.368l-45.312 11.584c-3.136 1.024-5.952 1.024-8 0-3.008-1.6-17.536-29.76-39.104-40.896l-81.408 53.12c18.304 25.92 54.208 66.56-2.24 103.36-61.184 39.872-135.68 25.088-173.504 11.328z m113.664-39.168c25.536-16.64 12.8-34.048 6.656-43.456l-76.096 49.728c17.92 5.184 45.248 9.472 69.44-6.272z m44.416-95.936l71.808-46.848c-12.16-3.712-42.304-12.032-68.224 4.928-23.872 15.488-10.176 33.344-3.584 41.92z m0 0" fill="#104E8B" p-id="6257"></path></svg>