<?xml version="1.0" standalone="no"?><!DOCTYPE svg PUBLIC "-//W3C//DTD SVG 1.1//EN" "http://www.w3.org/Graphics/SVG/1.1/DTD/svg11.dtd"><svg t="1547607131226" class="icon" style="" viewBox="0 0 1024 1024" version="1.1" xmlns="http://www.w3.org/2000/svg" p-id="3594" xmlns:xlink="http://www.w3.org/1999/xlink" width="200" height="200"><defs><style type="text/css"></style></defs><path d="M512 882.758621c-159.073103 0-294.664828-100.811034-347.10069-241.875862l67.442759-120.937931L52.965517 494.344828l0.353104 0.882758c-0.176552 5.473103-0.353103 11.122759-0.353104 16.772414 0 253.175172 205.85931 459.034483 459.034483 459.034483 208.331034 0 384.529655-139.475862 440.496552-329.798621l-88.099311-14.30069C815.845517 775.238621 676.369655 882.758621 512 882.758621zM970.681379 528.41931c0.176552-5.473103 0.353103-10.946207 0.353104-16.41931C971.034483 258.824828 765.175172 52.965517 512 52.965517 303.668966 52.965517 127.470345 192.441379 71.503448 382.94069l88.099311 14.300689C208.154483 248.761379 347.630345 141.241379 512 141.241379c157.484138 0 291.84 98.692414 345.511724 237.462069l-78.565517 116.171035 180.082759 32.308965c6.885517 1.235862 11.475862 2.118621 11.475862 2.118621h0.353103l-0.176552-0.882759z" fill="#104E8B" p-id="3595"></path><path d="M676.369655 531.42069v-64.088276h-102.223448l91.630345-92.689655-60.204138-55.084138-93.925517 85.627586-93.925518-85.627586-60.204138 54.907586 91.630345 92.689655h-101.693793v64.088276h117.406897v42.725517h-117.406897v85.627586h117.406897V723.862069h70.444138v-85.627586h140.888275v-64.088276h-140.888275V531.42069h141.064827z" fill="#104E8B" p-id="3596"></path></svg>