<?xml version="1.0" standalone="no"?><!DOCTYPE svg PUBLIC "-//W3C//DTD SVG 1.1//EN" "http://www.w3.org/Graphics/SVG/1.1/DTD/svg11.dtd"><svg t="1547557717937" class="icon" style="" viewBox="0 0 1024 1024" version="1.1" xmlns="http://www.w3.org/2000/svg" p-id="2427" xmlns:xlink="http://www.w3.org/1999/xlink" width="200" height="200"><defs><style type="text/css"></style></defs><path d="M608 672v32a32 32 0 0 1-32 32H256a32 32 0 0 1-32-32v-32c0-72.32 40-135.296 99.008-168a128 128 0 1 1 185.952 0A191.936 191.936 0 0 1 608 672zM288 672h256a128 128 0 1 0-256 0z m128-192a64 64 0 1 0 0-128 64 64 0 0 0 0 128z m288 128h64a32 32 0 0 1 0 64h-64a32 32 0 0 1 0-64z m-32-128h96a32 32 0 0 1 0 64h-96a32 32 0 0 1 0-64z m-32-128h128a32 32 0 0 1 0 64h-128a32 32 0 0 1 0-64z" p-id="2428" fill="#ffffff"></path></svg>