<?xml version="1.0" standalone="no"?><!DOCTYPE svg PUBLIC "-//W3C//DTD SVG 1.1//EN" "http://www.w3.org/Graphics/SVG/1.1/DTD/svg11.dtd"><svg t="1547822325791" class="icon" style="" viewBox="0 0 1024 1024" version="1.1" xmlns="http://www.w3.org/2000/svg" p-id="11572" xmlns:xlink="http://www.w3.org/1999/xlink" width="200" height="200"><defs><style type="text/css"></style></defs><path d="M960 1024H64a64 64 0 0 1-64-64V64a64 64 0 0 1 64-64h640a64 64 0 0 1 64 64v256h192a64 64 0 0 1 64 64v576a64 64 0 0 1-64 64z m-192-128h128V448h-128z m-192 0h64V128H128v768h64v-192a64 64 0 0 1 64-64h256a64 64 0 0 1 64 64z m-256 0h128v-128H320z m128-384H320a64 64 0 0 1-64-64 64 64 0 0 1 64-64h128a64 64 0 0 1 64 64 64 64 0 0 1-64 64z m0-192H320a64 64 0 0 1-64-64 64 64 0 0 1 64-64h128a64 64 0 0 1 64 64 64 64 0 0 1-64 64z" fill="#008B00" p-id="11573"></path></svg>