<?xml version="1.0" standalone="no"?><!DOCTYPE svg PUBLIC "-//W3C//DTD SVG 1.1//EN" "http://www.w3.org/Graphics/SVG/1.1/DTD/svg11.dtd"><svg t="1547800251042" class="icon" style="" viewBox="0 0 1024 1024" version="1.1" xmlns="http://www.w3.org/2000/svg" p-id="7510" xmlns:xlink="http://www.w3.org/1999/xlink" width="200" height="200"><defs><style type="text/css"></style></defs><path d="M438.154 881.824c-103.9 0-197-37.1-262.2-102.7-64.7-65-97.6-155.4-97-261.2 1-186.9 135.1-379.2 455.1-375.7h411l-9.4 45.4c-10.6 51.6-29.9 95.2-47.1 122.8h55.3l-8.8 36.8c-0.9 5.5-29.5 128-139.3 191-4.8 96.3-40.3 182-101.4 243.2-64.9 65.1-153.5 100.4-256.2 100.4" fill="" p-id="7511"></path><path d="M894.954 176.724s-272 1.1-360 0c-281.9-3.6-416.3 167.1-417.3 338.5-1.2 213.2 146.6 327.3 321.3 327.3 197 0 321-141 320.6-330.5 111.8-50.6 131.4-173.8 131.4-173.8h-71.5c25.4-28.4 62.4-81.5 75.5-161.5" fill="#FF5000" p-id="7512"></path><path d="M245.854 421.324c0-16.6 13.5-30.1 30.1-30.1s30.1 13.5 30.1 30.1-13.4 30.1-30.1 30.1-30.1-13.5-30.1-30.1M603.354 451.424c-16.6 0-30.1-13.4-30.1-30s13.5-30.1 30.1-30.1 30.1 13.5 30.1 30.1c-0.1 16.5-13.5 30-30.1 30M472.654 697.824h-66.1c-71.8 0-130.3-58.5-130.3-130.3s58.4-130.3 130.3-130.3h66.1c71.9 0 130.3 58.5 130.3 130.3 0 71.9-58.5 130.3-130.3 130.3z m-66.1-225.6c-52.5 0-95.3 42.8-95.3 95.3s42.7 95.3 95.3 95.3h66.1c52.6 0 95.3-42.8 95.3-95.3s-42.8-95.3-95.3-95.3h-66.1z" fill="" p-id="7513"></path><path d="M374.154 567.524c0-14 11.3-25.3 25.3-25.3s25.3 11.3 25.3 25.3-11.3 25.3-25.3 25.3-25.3-11.3-25.3-25.3M456.054 567.524c0-14 11.3-25.3 25.3-25.3s25.3 11.3 25.3 25.3-11.3 25.3-25.3 25.3-25.3-11.3-25.3-25.3" fill="" p-id="7514"></path></svg>