<?xml version="1.0" standalone="no"?><!DOCTYPE svg PUBLIC "-//W3C//DTD SVG 1.1//EN" "http://www.w3.org/Graphics/SVG/1.1/DTD/svg11.dtd"><svg t="1547776122536" class="icon" style="" viewBox="0 0 1024 1024" version="1.1" xmlns="http://www.w3.org/2000/svg" p-id="9945" xmlns:xlink="http://www.w3.org/1999/xlink" width="200" height="200"><defs><style type="text/css"></style></defs><path d="M940.6 900.6c-26.8 26.8-70.6 26.8-97.4 0L723.7 781.1c-26.8-26.8-26.8-70.6 0-97.4 26.8-26.8 70.6-26.8 97.4 0l119.4 119.4c26.9 26.9 26.9 70.7 0.1 97.5z" fill="#FFB89A" p-id="9946"></path><path d="M411.3 125.2c38.8 0 76.4 7.6 111.7 22.5 34.2 14.5 64.9 35.2 91.3 61.6s47.1 57.1 61.6 91.3c15 35.4 22.5 73 22.5 111.7s-7.6 76.4-22.5 111.7c-14.5 34.2-35.2 64.9-61.6 91.3s-57.1 47.1-91.3 61.6c-35.4 15-73 22.5-111.7 22.5s-76.4-7.6-111.7-22.5c-34.2-14.5-64.9-35.2-91.3-61.6s-47.1-57.1-61.6-91.3c-15-35.4-22.5-73-22.5-111.7s7.6-76.4 22.5-111.7c14.5-34.2 35.2-64.9 61.6-91.3s57.1-47.1 91.3-61.6c35.3-14.9 72.9-22.5 111.7-22.5m0-60c-191.7 0-347.1 155.4-347.1 347.1s155.4 347.1 347.1 347.1S758.4 604 758.4 412.3 603 65.2 411.3 65.2zM844.9 960.7c-22.2 0-44.4-8.2-61.5-24.7L651.7 832l-1.2-1.2c-29-29-34.4-73.8-13.2-108.9 8.6-14.2 27-18.8 41.2-10.2 14.2 8.6 18.8 27 10.2 41.2-6.6 10.9-5.1 25.1 3.3 34.5L823.2 891l1.2 1.2c11.3 11.3 29.7 11.3 41 0l27.1-27.1c11.3-11.3 11.3-29.7 0-41l-1.2-1.2-103.7-130.7c-8.5-7.7-21-9.7-31.6-4.8-15.1 6.9-32.9 0.3-39.8-14.8-6.9-15.1-0.3-32.9 14.8-39.8 33.7-15.4 73.9-8.2 100 17.9l1.2 1.2 1.1 1.3 103 129.7c33.4 34.8 32.9 90.2-1.3 124.5l-27.1 27.1c-17.4 17.5-40.2 26.2-63 26.2z" fill="#45484C" p-id="9947"></path><path d="M257 555.7c-10.1 0-19.9-5.1-25.6-14.3-8.7-14.1-4.3-32.6 9.8-41.3 49.2-30.4 102.9-69 155.2-111.8 69.1-56.5 131.2-116.4 174.7-168.6 46.8-56.1 57.5-85.8 57.9-94.5-8.1-12.7-5.7-29.7 6.3-39.4 12.8-10.5 31.7-8.6 42.2 4.2 14.7 18 15.4 43.1 1.9 74.5-9.5 22.1-26.2 48.4-49.8 78.3-46.4 58.8-115.8 127-195.2 192-54.3 44.5-110.3 84.7-161.7 116.4-4.9 3.1-10.3 4.5-15.7 4.5zM104.5 622.2c-5.7 0-10.9-0.5-15.8-1.5-16.2-3.4-26.6-19.2-23.3-35.5 3.4-16.2 19.2-26.6 35.5-23.3 1.9 0.4 19.6 3.1 71.5-21 15-7 32.9-0.4 39.8 14.6 7 15 0.4 32.9-14.6 39.8-38.7 18.1-69.4 26.9-93.1 26.9z" fill="#33CC99" p-id="9948"></path><path d="M312.5 645.3c-10.1 0-19.9-5.1-25.6-14.3-8.7-14.1-4.3-32.6 9.8-41.3 49.2-30.4 102.9-69 155.2-111.8 69.1-56.5 131.2-116.4 174.7-168.6 46.8-56.1 57.5-85.8 57.9-94.5-8.1-12.7-5.7-29.7 6.3-39.4 12.8-10.5 31.7-8.6 42.2 4.2 14.7 18 15.4 43.1 1.9 74.5-9.5 22.1-26.2 48.4-49.8 78.3-46.4 58.8-115.8 127-195.2 192-54.3 44.4-110.3 84.7-161.7 116.4-4.9 3-10.4 4.5-15.7 4.5zM151.1 713.8c-16.8 0-35-4.4-47.3-19.5-10.5-12.8-8.6-31.7 4.2-42.2 11.9-9.7 29-8.8 39.8 1.6 4.7 0.6 23.5 0.7 70.6-21.1 15-7 32.9-0.4 39.8 14.6s0.4 32.9-14.6 39.8c-29.3 13.6-54.5 22.1-74.9 25.3-5.4 0.9-11.4 1.5-17.6 1.5z m-0.9-57.5z" fill="#33CC99" p-id="9949"></path></svg>