<?xml version="1.0" standalone="no"?><!DOCTYPE svg PUBLIC "-//W3C//DTD SVG 1.1//EN" "http://www.w3.org/Graphics/SVG/1.1/DTD/svg11.dtd"><svg t="1547718469386" class="icon" style="" viewBox="0 0 1025 1024" version="1.1" xmlns="http://www.w3.org/2000/svg" p-id="4496" xmlns:xlink="http://www.w3.org/1999/xlink" width="200.1953125" height="200"><defs><style type="text/css"></style></defs><path d="M512.007 585.651c-56.103 0-112.243-1.306-168.308 0.423-41.318 1.306-65.626-39.668-47.002-76.032 28.646-55.872 58.137-111.36 87.398-166.963 9.408-17.856 24.576-26.266 44.16-26.266 55.757-0.077 111.437-0.077 167.155-0.038 20.122 0.038 35.212 8.871 44.851 27.226 28.762 54.951 57.331 109.901 86.323 164.736 18.663 35.328-3.264 78.989-47.539 77.414-55.642-2.035-111.36-0.499-167.040-0.499zM769.673 892.621c-55.718 0-111.437-1.459-167.078 0.461-43.891 1.536-65.088-41.817-47.002-76.685 28.723-55.411 57.638-110.708 86.823-165.849 9.293-17.588 23.962-26.343 44.122-26.228 56.064 0.384 112.205 0.308 168.308 0.038 19.661-0.115 34.176 8.371 43.238 25.536 29.529 55.872 59.251 111.668 87.668 168.154 14.477 28.8 2.688 60.634-24.115 71.616-7.757 3.149-15.706 2.918-23.692 2.918-56.064 0.077-112.166 0.038-168.269 0.038zM253.616 892.621c-56.064 0-112.243-1.459-168.308 0.461-43.392 1.497-65.088-41.472-46.771-76.8 28.723-55.373 57.638-110.669 86.899-165.811 9.292-17.587 23.962-26.304 44.122-26.151 55.68 0.384 111.398 0.384 167.040 0 20.697-0.154 35.558 8.717 45.082 26.688 28.954 54.835 58.023 109.594 86.246 164.774 15.206 29.76 3.955 62.784-23.577 73.92-7.718 3.111-15.706 2.88-23.654 2.88-55.68 0.077-111.398 0.038-167.078 0.038zM249.699 423.219c-4.109-19.776-8.448-39.514-12.211-59.366-1.536-8.103-4.723-12.134-13.402-13.594-19.661-3.341-39.053-8.217-58.944-14.131 19.546-4.224 38.899-8.948 58.522-12.442 8.832-1.574 12.48-5.606 14.016-14.438 3.494-19.929 8.026-39.668 13.747-59.251 4.263 20.083 8.947 40.128 12.518 60.365 1.421 8.103 4.762 11.558 12.557 13.056 19.852 3.802 39.514 8.332 59.059 14.4-19.852 4.301-39.706 8.948-59.712 12.749-7.526 1.421-10.445 4.877-11.789 12.365-3.648 20.045-8.141 39.821-12.365 59.712-0.652 0.192-1.306 0.384-1.997 0.576zM738.223 423.449c18.24-3.917 36.442-8.486 54.835-11.635 10.406-1.728 15.629-5.837 17.165-17.088 2.227-16.474 6.374-32.717 9.715-48.96 0.537-2.803 0.883-5.683 3.725-7.449 4.301 20.736 8.947 41.357 12.787 62.092 1.191 6.221 3.725 8.678 9.792 9.869 20.237 3.994 40.397 8.794 60.557 15.283-19.891 4.377-39.706 9.024-59.674 12.903-6.528 1.267-9.485 3.763-10.752 10.56-3.725 20.352-8.332 40.589-12.864 62.208-5.683-9.984-5.568-20.544-8.141-30.221-2.88-10.983-5.223-22.157-6.951-33.408-0.922-6.067-3.878-7.834-9.216-8.909-20.352-4.109-40.627-8.678-60.941-13.056 0-0.729-0.038-1.421-0.038-2.189zM541.692 216.743c19.392-4.263 38.669-9.254 58.214-12.518 8.909-1.536 11.635-5.722 13.132-13.901 3.648-19.891 8.179-39.591 13.977-59.405 4.186 20.237 8.602 40.512 12.518 60.826 1.306 7.219 3.994 10.944 11.866 12.288 19.699 3.456 39.206 8.294 60.711 12.979-10.983 5.491-21.657 5.683-31.526 8.332-10.023 2.688-20.198 5.108-30.489 6.489-6.912 0.922-9.139 4.685-10.329 10.791-4.109 20.736-8.448 41.395-14.362 62.208-4.263-20.391-8.832-40.743-12.595-61.248-1.344-7.565-4.685-10.752-11.943-12.172-19.891-3.878-39.629-8.448-59.443-12.749 0.115-0.614 0.192-1.306 0.269-1.92z" p-id="4497" fill="#104E8B"></path></svg>